<?xml version="1.0" standalone="no"?>
<!DOCTYPE svg PUBLIC "-//W3C//DTD SVG 20010904//EN"
 "http://www.w3.org/TR/2001/REC-SVG-20010904/DTD/svg10.dtd">
<svg version="1.0" xmlns="http://www.w3.org/2000/svg"
 width="2240.000000pt" height="2240.000000pt" viewBox="0 0 2240.000000 2240.000000"
 preserveAspectRatio="xMidYMid meet">

<g transform="translate(0.000000,2240.000000) scale(0.100000,-0.100000)"
fill="#f8f8f8" stroke="none">
<path d="M10810 22394 c-653 -30 -1175 -93 -1755 -209 -1848 -371 -3572 -1210
-5045 -2454 -448 -379 -962 -893 -1341 -1341 -802 -949 -1438 -2007 -1889
-3140 -391 -982 -639 -2017 -734 -3065 -34 -363 -40 -533 -40 -985 0 -637 29
-1043 120 -1645 304 -2014 1188 -3941 2543 -5545 379 -448 893 -962 1341
-1341 1233 -1042 2659 -1808 4175 -2244 763 -219 1499 -345 2370 -407 237 -17
1053 -17 1290 0 871 62 1596 186 2370 407 222 63 714 229 930 313 1190 463
2265 1103 3245 1931 448 379 962 893 1341 1341 1131 1338 1925 2879 2343 4550
136 539 227 1079 280 1655 33 358 40 532 40 985 0 453 -7 627 -40 985 -115
1246 -426 2414 -949 3570 -418 924 -994 1830 -1674 2635 -379 448 -893 962
-1341 1341 -949 802 -2007 1438 -3140 1889 -1065 424 -2137 668 -3320 755
-192 14 -947 27 -1120 19z m835 -1204 c2850 -129 5405 -1365 7206 -3485 1863
-2193 2673 -5134 2228 -8090 -246 -1633 -923 -3239 -1906 -4518 l-52 -68 -47
93 c-729 1454 -1916 2726 -3359 3600 -513 311 -1150 610 -1690 794 -77 26
-143 50 -148 54 -4 4 52 46 125 95 885 589 1586 1428 1996 2390 220 517 355
1081 391 1640 106 1601 -617 3213 -1928 4300 -560 464 -1214 811 -1902 1010
-767 222 -1549 253 -2333 94 -1893 -383 -3490 -1865 -4031 -3740 -222 -767
-253 -1549 -94 -2333 273 -1348 1109 -2571 2297 -3361 73 -49 129 -92 125 -95
-5 -4 -70 -28 -147 -54 -656 -221 -1377 -579 -2016 -1001 -1285 -848 -2362
-2053 -3034 -3393 l-47 -93 -52 68 c-499 649 -942 1424 -1269 2218 -961 2333
-1009 5053 -133 7430 740 2005 2104 3710 3892 4863 1395 900 2989 1430 4695
1562 368 29 862 37 1233 20z m-150 -3200 c1197 -85 2222 -623 2905 -1525 519
-685 800 -1549 800 -2465 0 -1298 -557 -2459 -1535 -3200 -964 -731 -2283
-980 -3530 -669 -1291 323 -2311 1271 -2723 2529 -283 865 -283 1815 0 2680
381 1165 1283 2067 2448 2448 520 170 1091 241 1635 202z m335 -9215 c1335
-112 2513 -513 3585 -1220 247 -163 590 -423 775 -588 547 -488 956 -959 1334
-1535 254 -387 466 -782 656 -1222 l71 -165 -83 -79 c-918 -874 -1932 -1534
-3083 -2008 -2333 -961 -5053 -1009 -7430 -133 -1279 472 -2416 1183 -3423
2141 l-83 79 71 165 c398 923 936 1723 1618 2407 1112 1114 2543 1838 4127
2087 264 42 523 67 900 90 141 9 792 -4 965 -19z"/>
</g>
</svg>
